<svg fill="#5f6368" xmlns="http://www.w3.org/2000/svg" viewBox="0 0 512 512"><path d="M276.9 84.1V9.7c0-2.8-1.2-5.5-3.4-7.4-2.2-1.8-5-2.6-7.9-2.2-6 1-11.1 4.6-14.2 9.8L202.3 95l-94.9-25.4c-7.1-1.9-14.4.1-19.6 5.2-5.2 5.2-7.1 12.5-5.2 19.6l25.4 94.9-85.1 49.1c-6.3 3.7-10.1 10.2-10.1 17.5 0 7.3 3.8 13.9 10.1 17.5l85.1 49.1-25.4 94.9c-1.9 7.1.1 14.4 5.2 19.6 3.9 3.9 8.9 5.9 14.2 5.9 1.8 0 3.6-.2 5.3-.7l94.9-25.4 49.1 85.1c3 5.3 8.2 8.9 14.2 9.8.5.1 1.1.1 1.6.1 2.3 0 4.5-.8 6.3-2.3 2.2-1.8 3.4-4.5 3.4-7.4v-74.4C368 423.6 441 348 441 255.8c.1-92.1-72.9-167.6-164.1-171.7zm-174 217.4l-72.1-41.6c-2-1.2-2.2-3.1-2.2-3.8 0-.8.2-2.7 2.2-3.8l72.1-41.6c-4 14.5-6.1 29.7-6.1 45.5 0 15.5 2.2 30.8 6.1 45.3zm-5-211.2c-.6-2.2.6-3.7 1.1-4.3.5-.5 2-1.7 4.3-1.1l80.5 21.6c-26.8 15.3-49 37.6-64.3 64.3L97.9 90.3zm5.4 336.8c-2.2.6-3.7-.6-4.3-1.1-.5-.5-1.7-2-1.1-4.3l21.6-80.5c15.3 26.8 37.6 49 64.3 64.3l-80.5 21.6zM261 487l-37.6-65c12 3.3 24.6 5.3 37.6 5.9V487zm0-233c0 7-5.7 12.7-12.7 12.7-7 0-12.7-5.7-12.7-12.7 0-4.4-3.5-7.9-7.9-7.9s-7.9 3.5-7.9 7.9c0 15.7 12.8 28.5 28.5 28.5 4.5 0 8.8-1.1 12.7-3v132.6C178.5 408 112.7 339.5 112.7 256s65.9-152 148.4-156.1L261 254zm0-169.9c-12.9.6-25.5 2.6-37.5 5.9L261 25v59.1zm15.9 328V279.5c3.8 1.9 8.1 3 12.7 3 15.7 0 28.5-12.8 28.5-28.5 0-4.4-3.5-7.9-7.9-7.9s-7.9 3.5-7.9 7.9c0 7-5.7 12.7-12.7 12.7-7 0-12.7-5.7-12.7-12.7V99.9c82.5 4.1 148.4 72.6 148.4 156.1-.1 83.5-65.9 152-148.4 156.1z"/></svg>