<svg fill="#5f6368" height="511pt" viewBox="0 0 512 511" width="511pt" xmlns="http://www.w3.org/2000/svg"><path d="M296.465 336.098a189.874 189.874 0 00-39.89-21.29c18.613-16.917 30.96-40.617 33.109-67.148 28.226-27.504 65.226-42.582 104.89-42.582 30.965 0 60.696 9.324 85.985 26.961 9.062 6.32 21.523 4.102 27.843-4.96 6.317-9.06 4.098-21.524-4.96-27.84a190.083 190.083 0 00-39.895-21.29C484.086 159.281 497 132.363 497 102.49 497 46.25 451.25.5 395.012.5c-56.235 0-101.985 45.75-101.985 101.988 0 29.754 12.809 56.574 33.207 75.235a188.974 188.974 0 00-8.32 3.422 189.912 189.912 0 00-35.223 20.234c-15.09-37.488-51.828-64.02-94.652-64.02-56.234 0-101.988 45.75-101.988 101.985 0 29.672 12.738 56.418 33.027 75.07-54.246 20.324-98.23 63.977-116.137 119.648-5.937 18.461-2.793 38.04 8.63 53.715 11.421 15.672 29.093 24.66 48.484 24.66h173.98c11.043 0 19.996-8.953 19.996-20 0-11.042-8.953-19.996-19.996-19.996H60.055c-6.465 0-12.356-2.996-16.164-8.222s-4.856-11.754-2.88-17.91c19.766-61.454 80.048-104.372 146.59-104.372 30.962 0 60.696 9.325 85.985 26.961 9.059 6.32 21.523 4.098 27.844-4.96 6.316-9.06 4.097-21.524-4.965-27.84zm98.547-295.602c34.183 0 61.992 27.809 61.992 61.992 0 34.18-27.809 61.992-61.992 61.992-34.18 0-61.992-27.812-61.992-61.992 0-34.183 27.812-61.992 61.992-61.992zM188.039 177.352c34.184 0 61.992 27.812 61.992 61.992 0 34.183-27.808 61.992-61.992 61.992s-61.992-27.809-61.992-61.992c0-34.18 27.808-61.992 61.992-61.992zM512 417.449c0 11.043-8.953 19.996-20 19.996h-54.992v54.992c0 11.047-8.953 20-19.996 20-11.047 0-20-8.953-20-20v-54.992H342.02c-11.043 0-19.997-8.953-19.997-19.996 0-11.047 8.954-20 19.997-20h54.992v-54.992c0-11.043 8.953-19.996 20-19.996 11.043 0 19.996 8.953 19.996 19.996v54.992H492c11.047 0 20 8.953 20 20zm0 0"/></svg>