<svg version="1.1" id="Layer_1" xmlns="http://www.w3.org/2000/svg" x="0" y="0" viewBox="0 0 682 682" xml:space="preserve"><style>.st0{fill:#5f6368}</style><path class="st0" d="M572.5 46H108.9C60.4 46 21 85.4 21 133.9v283.7c0 48.4 39.3 87.7 87.6 87.9v128.7l185-128.7h278.9c48.5 0 87.9-39.4 87.9-87.9V133.9c0-48.5-39.5-87.9-87.9-87.9zm50.4 371.6c0 27.8-22.6 50.4-50.4 50.4H281.8L146 562.5V468h-37.2c-27.8 0-50.4-22.6-50.4-50.4V133.9c0-27.8 22.6-50.4 50.4-50.4h463.6c27.8 0 50.4 22.6 50.4 50.4v283.7z"/><path class="st0" d="M321.9 367.6V151h37.5v216.6h-37.5z"/></svg>