<svg fill="#fff" height="512pt" viewBox="0 0 512 512" width="512pt" xmlns="http://www.w3.org/2000/svg"><path d="M45 422h30c8.285 0 15-6.715 15-15V256c0-8.285-6.715-15-15-15H45c-24.852 0-45 20.148-45 45v91c0 24.852 20.148 45 45 45zm422-181h-30c-8.285 0-15 6.715-15 15v181c0 8.277-6.723 15-15 15h-77.762c-6.215-17.422-22.707-30-42.238-30h-61c-24.813 0-45 20.188-45 45s20.188 45 45 45h61c19.531 0 36.023-12.578 42.238-30H407c24.813 0 45-20.188 45-45v-15h15c24.852 0 45-20.148 45-45v-91c0-24.852-20.148-45-45-45zM30.684 212.45c4.64-.903 9.414-1.45 14.316-1.45h30c5.508 0 10.727 1.133 15.61 2.953C96.8 128.473 168.937 60 256 60s159.2 68.473 165.39 153.953c4.883-1.82 10.102-2.953 15.61-2.953h30c4.902 0 9.676.547 14.316 1.45C474.273 94.53 375.688 0 256 0S37.727 94.531 30.684 212.45zm0 0"/></svg>