<svg width="1280" height="307" fill="none" xmlns="http://www.w3.org/2000/svg"><circle cx="1121.01" cy="217.239" r="27.662" stroke="#D4E1F3" stroke-linecap="round"/><path d="M1120.58 204.281v87.768m0-68.461l10.3-10.302m-10.49 20.205l-7.33-7.328m7.33-8.734l-7.33-7.327" stroke="#D4E1F3" stroke-linecap="round"/><circle cx="1132.29" cy="223.588" r="1.697" stroke="#D4E1F3" stroke-linecap="round"/><circle cx="1104.71" cy="210.101" r="1.697" stroke="#D4E1F3" stroke-linecap="round"/><path d="M1101.26 297.3a13.604 13.604 0 0115.29-6.95 13.61 13.61 0 0110.38 13.199m-39.13 0a7.89 7.89 0 1115.77 0" stroke="#D4E1F3" stroke-linecap="round"/><path d="M1123.68 294.734a9.602 9.602 0 019.05.817 9.582 9.582 0 014.31 7.998" stroke="#D4E1F3" stroke-linecap="round"/><path d="M1114.09 293.965v8.575l-4.09-4.092" stroke="#D4E1F3" stroke-linecap="round" stroke-linejoin="round"/><path d="M1114.09 299.605l2.99-2.994m-149.506 1.687a13.597 13.597 0 0125.666 6.249m7.77-6.359a13.583 13.583 0 0115.28-6.949 13.587 13.587 0 0110.38 13.198m-72.552.11a7.885 7.885 0 1115.762 0m-26.514 0a7.887 7.887 0 0112.918-6.07" stroke="#D4E1F3" stroke-linecap="round"/><path d="M1026.67 304.547a7.89 7.89 0 0111.91-7.063 7.865 7.865 0 013.85 7.063m-52.435-8.815a9.594 9.594 0 0113.355 8.815m-33.34-59.067v49.274" stroke="#D4E1F3" stroke-linecap="round"/><path d="M980.402 294.963v8.575l-4.093-4.092m35.791-4.483v8.575l-4.1-4.092" stroke="#D4E1F3" stroke-linecap="round" stroke-linejoin="round"/><path d="M970.01 264.207l6.499-6.499m-6.629-2.555l-4.622-4.622m15.144 50.073l2.995-2.995m-23.36-40.679v-12.349c0-5.513 4.47-9.982 9.983-9.982v0c5.513 0 9.983 4.469 9.983 9.982v18.728c0 5.513-4.47 9.982-9.983 9.982v0a9.982 9.982 0 01-5.171-1.437m-10.731-9.723v35.078m0-19.785l6.498-6.499m-6.618-1.796l-4.622-4.622" stroke="#D4E1F3" stroke-linecap="round"/><rect x="944.145" y="255.882" width="19.935" height="27.692" rx="9.968" stroke="#D4E1F3" stroke-linecap="round"/><path d="M980.402 245.49h17.489v18.877m-53.516-38.284h26.743v7.487m26.774 30.797h26.748v18.887m0 0h26.74v21.183m0 0h26.74m-106.972-77.834v5.071" stroke="#D4E1F3" stroke-width="1.68" stroke-linecap="round"/><path d="M1087.95 222.45s-9.04.329-19.8 0a30.944 30.944 0 01-15.97-4.912 5.66 5.66 0 01-1.87-1.587c-.55-1.328-1.81 5.83-3.19 5.441l-3.66 2.835-9.98-2.356 9.16 11.58s-.45-.679 11.57-2.686c10.51-1.767 25.13-2.515 34.23-2.645l-.49-5.67z" fill="#EBEBEB"/><path d="M1087.95 222.45l7.27-.11.04 3.015-6.99 1.128-.32-4.033z" fill="#D48E64"/><ellipse cx="1095.83" cy="225.377" rx="3.055" ry="3.793" transform="rotate(-84.72 1095.83 225.377)" fill="#D48E64"/><path d="M1049.51 221.601l-6.91-17.38-3.13 4.283c-.11.147-.21.3-.3.459a5.039 5.039 0 00-.25 4.092 5.015 5.015 0 002.9 2.896l.78.309.81 7.987 6.1-2.646z" fill="#D48E64"/><path d="M1017.99 199.949s6.25 6.549 14.16 13.826a30.861 30.861 0 0014.92 7.657c.79.233 1.62.291 2.44.169 1.32-.569 4.32 5.82 5.59 6.499l3.3 3.614 3.06 8.255-14.74 6.649a98.807 98.807 0 00-10.38-17.13c-6.3-8.586-16.26-19.317-22.7-25.756l4.35-3.783z" fill="#EBEBEB"/><path d="M1060.94 300.873l5.54-3.444 2.48 4.902-7.04.419-.98-1.877z" fill="#D48E64"/><path d="M1046.66 268.829l.1-23.359c0-.639.22-1.259.62-1.757 1.32-1.657 4.93-4.992 12.08-4.622.76.031 1.47.345 2 .878l15.84 15.913-30.64 12.947z" fill="#F2BD41"/><path d="M1077.57 256.271c1 2.286-5.07 7.088-13.51 10.721-8.45 3.634-16.32 4.582-17.3 2.296-.99-2.286 5.28-6.928 13.73-10.571 8.46-3.644 16.09-4.712 17.08-2.446z" fill="#F19920"/><path d="M1102.36 255.582l-8.64 1.008 2.06-4.302 6.86 1.647-.28 1.647z" fill="#D48E64"/><path d="M1095.14 252.607l-18.96 10.203-2.7-4.423c-2.96.75-5.86 1.727-8.68 2.925l7.99 9.254a3.632 3.632 0 005.09.409l18.67-16.281c.45-.431.52-1.12.17-1.634a1.28 1.28 0 00-1.58-.453zm-27.22 49.394c.11.568.66.937 1.23.824.57-.113.94-.665.83-1.233l-8.52-38.733a53.901 53.901 0 00-8.7 5.351l15.16 33.791z" fill="#D48E64"/><path d="M1071.61 255.312l-1.37.24c-2.81.59-5.56 1.436-8.21 2.526l2.79 3.234a59.685 59.685 0 018.68-2.925l-1.89-3.075zm-20.81 8.676l1.21 2.655.75 1.567a53.896 53.896 0 018.7-5.35l-1-4.143a55.276 55.276 0 00-9.66 5.271z" fill="#CE835A"/><path d="M1042.6 204.221l3.18 7.987c.99 5.4 1.58 10.865 1.78 16.351 0 7.986 10.09 15.793 17.75 5.99 7.67-9.803-13.97-31.376-13.97-31.376s-5.64-3.264-8.78.999" fill="#674424"/><ellipse cx="1045.65" cy="211.531" rx="1.727" ry="1.418" transform="rotate(-33.41 1045.65 211.531)" fill="#D48E64"/><path d="M1017.99 199.949l-5.14-5.141-2.14 2.126 4.23 5.69 3.05-2.675z" fill="#D48E64"/><ellipse cx="1010.33" cy="196.591" rx="3.055" ry="3.793" transform="rotate(-51.08 1010.33 196.591)" fill="#D48E64"/><path d="M1058.58 302.311l2.59-1.588 1.57.44c.59.17 1.19.258 1.81.259h5.43c.23.474.2 1.035-.07 1.484a1.53 1.53 0 01-1.3.722h-9.39c-.67 0-1.22-.958-.64-1.317zm46.57-46.978l-2.79.249-.7-.449a6.605 6.605 0 00-1.66-.769l-5.19-1.577c-.1-.534.09-1.082.5-1.437.42-.355.99-.462 1.5-.28l8.57 2.605c.4.125.65.516.59.926-.06.41-.4.719-.82.732z" fill="#C2C1C0"/><path d="M988.817 153.18v24.268c0 2.116-2.994-2.446-5.061-2.555l-14.135 5.42 15.882-26.623 3.314-.51zm-13.806-1.786l-5.63 8.704 4.323 3.784 3.573-8.545-2.266-3.943z" fill="#98705B"/><path d="M979.913 163.872l1.128 4.093-7.427 2.386-2.995-5.221 2.635-3.704 4.932-8.335a3.42 3.42 0 014.692-1.228l4.991 2.915s-2.855 7.497-5.78 8.245a2.472 2.472 0 01-1.647-.219l-.529 1.068z" fill="#E6C1A9"/><path d="M965.508 184.017s-.19 3.454 3.134 3.723a14.646 14.646 0 006.898-1.617l-3.793-5.131s-2.745-1.218-6.229 2.266" fill="#A42422"/><path d="M970.659 180.503l3.075 9.194L987 187.95l-1.397-6.938-14.944-.509z" fill="#E6C1A9"/><path d="M997.253 245.47l6.607-6.738c1-.999 1.48-1.628.93-2.606l-1.76-3.174v-.09l-5.987 2.665-1.807 8.815a1.199 1.199 0 002.017 1.128zm-36.707-24.218l-4.671 2.855a1.067 1.067 0 00.549 1.996h10.232a1.256 1.256 0 001.198-1.557l-.739-3.324h-6.588l.019.03z" fill="#DA513E"/><path d="M962.862 202.954l2.456-1.198-4.073-8.465-6.988 3.673a3.993 3.993 0 00-1.866 5.131l3.054 7.178h8.865l-1.448-6.319z" fill="#E6C1A9"/><path d="M955.445 209.273l5.091 11.949h6.589l-2.815-11.949h-8.865z" fill="#F2F3F4"/><path d="M992.87 203.942l-10.152 3.883 7.707 14.894 7.856-3.344-5.411-15.433z" fill="#E6C1A9"/><path d="M1003 232.862l-4.719-13.487-7.856 3.344 6.618 12.808 5.957-2.665z" fill="#F2F3F4"/><mask id="a" maskUnits="userSpaceOnUse" x="961" y="185" width="32" height="24"><path d="M984.714 185.464a34.517 34.517 0 00-9.982 1.078c-.899.238-1.769.573-2.596.999l-10.931 5.74 4.942 10.262 10.551-2.636 4.423 7.517 11.749-4.492-5.87-16.811a2.516 2.516 0 00-2.286-1.657z" fill="#5B7FC0"/></mask><g mask="url(#a)"><path d="M984.714 185.464a34.517 34.517 0 00-9.982 1.078c-.899.238-1.769.573-2.596.999l-10.931 5.74 4.942 10.262 10.551-2.636 4.423 7.517 11.749-4.492-5.87-16.811a2.516 2.516 0 00-2.286-1.657z" fill="#5B7FC0"/><path d="M972.016 193.67l8.675 15.184" stroke="#3868B2"/></g><path d="M982.718 207.825l.749 1.448 10.771-1.448-1.368-3.883-10.152 3.883z" fill="#DEB093"/><circle cx="964.21" cy="223.239" r="1.068" fill="#F2F3F4"/><circle cx="1001.27" cy="236.525" r="1.068" fill="#F2F3F4"/><path d="M957.442 223.159l.529.888m1.108-1.837l.529.879m36.437 17.18l1.038.04m-.579-2.276l1.028.04" stroke="#B22024" stroke-linecap="round"/><path d="M986.112 183.558c-2.764.457-5.57.594-8.365.409a8.417 8.417 0 00-5.551 1.158l-1.347-3.993-1.089-2.566 15.603 1.168.749 3.824z" fill="#DEB093"/><path d="M960.537 221.222l-.609-1.408h1.587a1.928 1.928 0 011.817 1.388l-2.795.02zm36.506 14.305l-.669-1.288 1.408-.609a1.917 1.917 0 012.206.579l-2.945 1.318z" fill="#DA513E"/><path d="M980.432 162.804l-3.754-2.147 2.766 4.303.988-2.156z" fill="#DEB093"/><path d="M988.817 153.181c-.369 3.863-4.742 1.916-7.986 1.916-1.857 0-4.532 1.158-5.351 2.556-.638 1.098-2.266-.779-2.266-2.136 0-3.215 4.632-8.496 9.424-8.496 3.284-.02 6.529 2.935 6.179 6.16z" fill="#98705B"/><ellipse cx="979.128" cy="154.913" rx="1.477" ry="1.078" transform="rotate(-83.67 979.128 154.913)" fill="#E6C1A9"/><path d="M943.806 147.74L932.825 142a1.658 1.658 0 00.259 1.997l3.714 3.713.11.479c.15.844.67 1.577 1.417 1.997l3.215 1.757 2.266-4.203zm60.764 39.362l6.2 6.339-2.75 2.575-6.27-5.98 2.82-2.934z" fill="#E6C1A9"/><ellipse cx="1009.03" cy="195.534" rx="2.785" ry="3.184" transform="rotate(-45 1009.03 195.534)" fill="#E6C1A9"/><mask id="b" maskUnits="userSpaceOnUse" x="940" y="147" width="65" height="44"><path d="M958.321 154.898l-14.515-7.158-2.905 5.281s9.783 5.51 14.095 8.465c3.993 2.745 7.078 7.836 8.885 12.089 1.807 4.253 1.597 10.442 1.597 10.442 2.995-2.995 5.72-3.764 10.452-2.226a28.274 28.274 0 009.982.998l-1.088-5.75 16.356 13.536 3.34-3.484-18.608-20.015a8.182 8.182 0 00-3.084-2.076l-2.925-1.128c-.05.17-.359.789-.419.998-.929 2.516-3.185 3.734-4.992 2.995-1.806-.739-2.585-3.314-1.647-5.7l.4-.709-14.924-6.558z" fill="#DA513E"/></mask><g mask="url(#b)"><path d="M958.321 154.898l-14.515-7.158-2.905 5.281s9.783 5.51 14.095 8.465c3.993 2.745 7.078 7.836 8.885 12.089 1.807 4.253 1.597 10.442 1.597 10.442 2.995-2.995 5.72-3.764 10.452-2.226a28.274 28.274 0 009.982.998l-1.088-5.75 16.356 13.536 3.34-3.484-18.608-20.015a8.182 8.182 0 00-3.084-2.076l-2.925-1.128c-.05.17-.359.789-.419.998-.929 2.516-3.185 3.734-4.992 2.995-1.806-.739-2.585-3.314-1.647-5.7l.4-.709-14.924-6.558z" fill="#DA513E"/><path d="M989.316 181.421l-6.638-5.74m-17.769 4.293s-1.807-12.169 2.366-18.707" stroke="#B8332A" stroke-linecap="round"/></g><path d="M1241.7 180.523a3.988 3.988 0 003.99 3.993c2.21 0 3.99-1.788 3.99-3.993m20.65 69.788v15.873m-24.62-94.216v-7.457c0-6.798 5.51-12.309 12.31-12.309 6.8 0 12.31 5.511 12.31 12.309v54.814m-8.73 84.273l1.58-30.167a7.639 7.639 0 017.63-7.247v0c4.06 0 7.41 3.188 7.61 7.247l1.58 30.167" stroke="#D4E1F3" stroke-linecap="round"/><path clip-rule="evenodd" d="M1255.11 180.523h-18.8v0c0-4.725 3.83-8.555 8.55-8.555h1.69c2.27 0 4.44.901 6.05 2.506a8.566 8.566 0 012.5 6.049v0h.01z" stroke="#D4E1F3" stroke-linecap="round"/><circle cx="1256.8" cy="234.818" r="20.574" stroke="#D4E1F3" stroke-linecap="round"/><path d="M1236.63 230.047a20.573 20.573 0 01-24.66-3.81 20.552 20.552 0 01-2.85-24.789 20.572 20.572 0 0123.15-9.306 20.584 20.584 0 0115.1 19.866c0 1.439-.15 2.875-.45 4.283m9.56 9.633v77.854m0-64.238l7.66-7.657m-7.8 15.014l-5.45-5.44m5.45-6.499l-5.45-5.441m-24.42-20.134v92.828m0-85.621l7.66-7.657m-7.8 3.075l-5.45-5.451" stroke="#D4E1F3" stroke-linecap="round"/><circle cx="1234.13" cy="200.508" r="1.697" stroke="#D4E1F3" stroke-linecap="round"/><circle cx="1245.81" cy="235.128" r="1.697" stroke="#D4E1F3" stroke-linecap="round"/><path opacity=".5" d="M1174.61 303.898h28.57m6.29 0h34.64m-100.83 0h21.1" stroke="#D4E1F3" stroke-linecap="round"/><path d="M1149.37 244.132c-12.89 10.592-9.91 34.62-9.91 34.62h26.69v-20.125c0-4.452.45-9.484 1.32-11.48l-12.68-8.246a49.954 49.954 0 01-5.42 5.231z" fill="#A9D8B5"/><mask id="c" maskUnits="userSpaceOnUse" x="1147" y="278" width="19" height="27"><path d="M1163.98 278.752l-4.22 18.178a2.12 2.12 0 001 2.306l4.52 2.685a1.41 1.41 0 01-.72 2.626h-12.98l-4.45-25.745 16.85-.05z" fill="#ECA880"/></mask><g mask="url(#c)"><path d="M1163.98 278.752l-4.22 18.178a2.12 2.12 0 001 2.306l4.52 2.685a1.41 1.41 0 01-.72 2.626h-12.98l-4.45-25.745 16.85-.05z" fill="#ECA880"/><path d="M1156.95 275.967l-.99 23.039 5.64 3.434a2.296 2.296 0 011.02 2.573 2.289 2.289 0 01-2.21 1.67h-11.06" stroke="#D98758"/></g><path opacity=".5" d="M1147.81 282.934H1163l.98-4.182h-16.9l.73 4.182z" fill="#D98758"/><path d="M1166.51 215.981s-2.36-8.515 6.06-10.651c8.41-2.137 10.73 6.987 11.6 11.659.87 4.672 13.49 17.15 2.69 22.651-10.8 5.5-14.35-2.586-16.11-6.189-1.76-3.604-4.24-17.47-4.24-17.47z" fill="#CB6229"/><path d="M1184.72 224.856l28.41 8.235a2.762 2.762 0 01-3 1.358l-2.34-.509-2.88.709c-.6.149-1.23.17-1.85.06l-20.19-3.584 1.85-6.269zm-19.34-4.622l1.3-3.175c.55-.667 1.18-1.27 1.86-1.797 2.33-1.846 2.34-.349 3.33-1.757.6-.858 2.35-1.118 3.32-1.517l4.25-1.767a20.311 20.311 0 01-2.55 6.679 3.56 3.56 0 01-4.05 1.357l-.79-.299-1.31 2.775 4.53 1.517-2.77 7.387-7.7-3.583-.18-4.333.76-1.467" fill="#ECA880"/><ellipse cx="1171.67" cy="213.807" rx="1.607" ry="1.168" transform="rotate(-82.79 1171.67 213.807)" fill="#ECA880"/><path d="M1173.83 221.761l11.89 3.055-1.55 7.616-9.45-2.565-.93-6.1" fill="#81C995"/><mask id="d" maskUnits="userSpaceOnUse" x="1152" y="220" width="26" height="28"><path d="M1176.19 227.281a16.685 16.685 0 00-2.37-5.52 4.278 4.278 0 01-7.39 1.996 4.164 4.164 0 01-1.05-3.533 8.734 8.734 0 00-5.91 3.444c-3.23 4.392-4.07 10.811-6.99 18.148l14.98 5.321a6.082 6.082 0 011.77-4.203l2.06 2.306 6.06-5.64-3.26-3.414a11.346 11.346 0 002.1-8.905z" fill="#A9D8B5"/></mask><g mask="url(#d)"><path d="M1176.19 227.281a16.685 16.685 0 00-2.37-5.52 4.278 4.278 0 01-7.39 1.996 4.164 4.164 0 01-1.05-3.533 8.734 8.734 0 00-5.91 3.444c-3.23 4.392-4.07 10.811-6.99 18.148l14.98 5.321a6.082 6.082 0 011.77-4.203l2.06 2.306 6.06-5.64-3.26-3.414a11.346 11.346 0 002.1-8.905z" fill="#A9D8B5"/><path d="M1174.44 235.896l-4.1-4.701m-1.48 12.428l-6.11-6.848s-3.07-3.474-2.93-5.91" stroke="#5BB874"/></g><path opacity=".5" d="M1172.05 217.958l-3.29-1.218 2.26 3.404 1.03-2.186z" fill="#D98758"/><path d="M1211.53 301.123h17.9" stroke="#7198CF"/><path d="M1210.26 299.436c0 .634.52 1.148 1.15 1.148h10.73a.997.997 0 00.55-1.827l-6.78-3.404h-6.65l1 4.083z" fill="#C2C1C0"/><path d="M1216.54 299.436c0 .304.12.596.34.811.21.216.5.337.81.337h10.71a.992.992 0 00.94-.716c.12-.418-.04-.868-.4-1.111l-6.77-3.404h-6.66l1.03 4.083z" fill="#C2C1C0"/><path d="M1215.13 295.353l1 3.923c.04.268.18.51.39.672.22.162.49.229.76.186" stroke="#A5A4A4" stroke-width=".91"/><path d="M1225.29 297.789l.76-.919" stroke="#787878" stroke-width=".91" stroke-linecap="round"/><path d="M1193.16 263.868h13.88c1.75.001 3.45.53 4.9 1.517a8.694 8.694 0 013.46 4.892l7.07 25.216h-13.15l-5.99-17.799h-11.37c-5.02 0-9.1-4.076-9.1-9.105v-3.783h10.3" fill="#7198CF"/><path d="M1215.09 295.353l-7.41-22.94h-2.61" stroke="#547DBF"/><path d="M1223.58 296.93l.89-1.058" stroke="#787878" stroke-width=".91" stroke-linecap="round"/><circle cx="1209.26" cy="299.755" r="4.063" fill="#91B2DE"/><circle cx="1209.26" cy="299.755" r="1.587" fill="#7198CF"/><path fill="#6B6B6B" d="M1220.21 229.685l1.782.734-3.316 8.049-1.782-.734z"/><path d="M1212.73 242.465l2.13-3.194 3.74 2.066-1.86 3.504-4.01-2.376z" fill="#A25A4B"/><circle cx="1217.95" cy="240.309" r="3.264" fill="#A25A4B"/><path d="M1203.14 228.05c-1.18 3.993-2.92 7.397-6.78 6.758-3.87-.639-6.87-3.324-6.18-7.477.53-4.034 4.22-6.882 8.25-6.369 4.94.839 5.56 4.233 4.71 7.088z" fill="#372422"/><path d="M1199.11 239.261l.56-3.365h.11c.53.062 1.06-.01 1.56-.209a3.814 3.814 0 002.33-3.444c.2-1.876.12-3.77-.25-5.62l-.4-.06a3.854 3.854 0 00-4.39 2.994l-.3 1.448-3.92-.479-1 3.154-.83 3.913-.53 4.223 7.23 1.208-.17-3.763z" fill="#A25A4B"/><ellipse cx="1195.89" cy="231.122" rx="1.937" ry="1.647" transform="rotate(-80.56 1195.89 231.122)" fill="#A25A4B"/><circle cx="1188.98" cy="283.883" r="19.925" fill="#fff" stroke="#D4E1F3" stroke-width="2" stroke-linecap="round"/><circle cx="1188.98" cy="283.883" r="2.825" fill="#91B2DE"/><path d="M1193.27 262.859l5.17 2.825c.68.358 1.2.952 1.46 1.668a7.69 7.69 0 01.39 3.364 2.07 2.07 0 01-1 1.557l-.34.21a2.121 2.121 0 01-3.17-1.458l-.28-1.657-5.09-2.156 2.86-4.353z" fill="#A25A4B"/><path opacity=".25" d="M1190.95 245.779l-8.26 11.27 12.62 7.348" stroke="#547DBF"/><mask id="e" maskUnits="userSpaceOnUse" x="1173" y="235" width="46" height="36"><path d="M1218.17 245.26l-10.06 15.054a2.883 2.883 0 01-1.96 1.22c-.79.116-1.6-.106-2.22-.611l-1.69-1.388v4.333h-6.61l-3.9 6.359-16.12-8.735a4.22 4.22 0 01-2.11-2.856 4.202 4.202 0 01.82-3.453l13.15-16.541c2.29-2.576 4.22-2.875 4.91-2.895.1-.014.2-.014.29 0l.25.07 5.1 1.567c.62.189 1.2.464 1.74.818.05.028.1.061.14.1a6.3 6.3 0 012.1 2.476c2.07 4.442 3.29 11.46 3.29 11.46l7.23-10.691 5.65 3.713z" fill="#D4E1F3"/></mask><g mask="url(#e)"><path d="M1218.17 245.26l-10.06 15.054a2.883 2.883 0 01-1.96 1.22c-.79.116-1.6-.106-2.22-.611l-1.69-1.388v4.333h-6.61l-3.9 6.359-16.12-8.735a4.22 4.22 0 01-2.11-2.856 4.202 4.202 0 01.82-3.453l13.15-16.541c2.29-2.576 4.22-2.875 4.91-2.895.1-.014.2-.014.29 0l.25.07 5.1 1.567c.62.189 1.2.464 1.74.818.05.028.1.061.14.1a6.3 6.3 0 012.1 2.476c2.07 4.442 3.29 11.46 3.29 11.46l7.23-10.691 5.65 3.713z" fill="#D4E1F3"/><path opacity=".25" d="M1202.74 260.533v-9.523" stroke="#547DBF"/></g><path d="M1199.73 238.222c-.72 1.707-1.87 2.755-3.72 2.246-1.86-.509-4-2.715-3.51-4.721.09-.011.18-.011.27 0l.24.069 4.91 1.508c.59.179 1.16.444 1.67.788.05.031.1.068.14.11z" fill="#A25A4B"/><path d="M1185.38 236.206l-8.26 5.989-1.12-1.307-4.65 4.322.63.699 1.91 2.076a2.873 2.873 0 004.1.26l9.66-9.324-2.27-2.715z" fill="#ECA880"/><path d="M1187.65 238.911l3.99-2.495s-.52-2.995-2.99-2.935c-.98.073-1.86.602-2.39 1.427l-.88 1.298 2.27 2.705z" fill="#ECA880"/><path d="M868.896 298.298a13.596 13.596 0 00-25.675 6.249m-7.757-6.359a13.596 13.596 0 00-25.665 6.249m0 .11a7.887 7.887 0 10-15.772 0m52.438-8.815a9.593 9.593 0 00-13.376 8.815" stroke="#D4E1F3" stroke-linecap="round"/><path d="M824.364 294.963v8.575l4.093-4.092" stroke="#D4E1F3" stroke-linecap="round" stroke-linejoin="round"/><path d="M933.244 269.108l18.518 29.639-5.101 2.855-13.417-18.698v-13.796z" fill="#208E45"/><path d="M952.8 304.916c0-.679-.998-3.763-.389-3.763h4.162a3.764 3.764 0 013.764 3.763" fill="#ECA880"/><path d="M912.58 283.184l-16.391-8.435a7.687 7.687 0 00-9.544 2.066l-15.762 19.965 6.868 5.081 15.513-14.544 10.212 7.327 11.7-5.101-2.596-6.359z" fill="#F7AB1B"/><path d="M930.199 267.331l1.528-5.849 1.118-6.549-6.409-2.436-4.462.42s-3.035 2.785-1.388 9.074c1.647 6.289 3.624 9.124 3.624 9.124l5.989-3.784z" fill="#ECA880"/><path opacity=".5" d="M924.04 304.896h16.022" stroke="#D4E1F3" stroke-linecap="round"/><path d="M951.762 298.747l3.763 6.149h-5.251l-2.605-3.863 4.093-2.286z" fill="#ECA880"/><path opacity=".5" d="M850.119 304.896h36.736" stroke="#D4E1F3" stroke-linecap="round"/><path d="M920.846 304.916h-27.313a4.452 4.452 0 01-4.452-4.442 4.454 4.454 0 013.204-4.273l22.891-6.678 9.613 11.151a2.565 2.565 0 01-1.997 4.242h-1.946z" fill="#F2BD41"/><mask id="f" maskUnits="userSpaceOnUse" x="909" y="266" width="28" height="39"><path d="M936.718 278.872c-.319-7.388-4.692-12.489-8.166-12.489a8.575 8.575 0 00-5.39 1.667l-.539 1.438h-6.569s-3.334 8.775-5.291 13.377c-1.956 4.602-1.996 9.333 1.258 9.333a7.268 7.268 0 003.234-.938 20.968 20.968 0 007.168 13.656c14.714 0 14.624-18.667 14.295-26.044z" fill="#55A55C"/></mask><g mask="url(#f)"><path d="M936.718 278.872c-.319-7.388-4.692-12.489-8.166-12.489a8.575 8.575 0 00-5.39 1.667l-.539 1.438h-6.569s-3.334 8.775-5.291 13.377c-1.956 4.602-1.996 9.333 1.258 9.333a7.268 7.268 0 003.234-.938 20.968 20.968 0 007.168 13.656c14.714 0 14.624-18.667 14.295-26.044z" fill="#55A55C"/><path d="M913.588 292.937s2.815-1.318 16.821-13.646l-16.821 13.646z" fill="#34A851"/><path d="M913.588 292.937s2.815-1.318 16.821-13.646" stroke="#1A8140"/><path d="M923.212 266.104l-4.503 14.714 4.503-14.714z" fill="#34A851"/><path d="M923.212 266.104l-4.503 14.714" stroke="#1A8140"/></g><path d="M929.101 247.955a8.066 8.066 0 00-7.616 3.494 1.829 1.829 0 00.788 2.696l1.298.559a5.36 5.36 0 013.075 3.504l.279.998.359.06a2.663 2.663 0 01.53-1.508 2.096 2.096 0 012.825-.758c.414.364.623.909.559 1.457 0 .899-.759 1.597-.739 2.486.04.56.151 1.114.329 1.647 0 .07.27.998.25.998a8.077 8.077 0 00-1.937-15.583v-.05z" fill="#CB6229"/><mask id="g" maskUnits="userSpaceOnUse" x="917" y="259" width="11" height="11"><path d="M920.157 259.655l.329 1.916a1.667 1.667 0 001.877 1.228l4.053-.579a1.1 1.1 0 011.148.839c.111.481-.108.977-.539 1.218l-3.255 1.777-1.148 3.434h-5.5l.709-5.241a7.857 7.857 0 011.996-4.273l.33-.319z" fill="#ECA880"/></mask><g mask="url(#g)"><path d="M920.157 259.655l.329 1.916a1.667 1.667 0 001.877 1.228l4.053-.579a1.1 1.1 0 011.148.839c.111.481-.108.977-.539 1.218l-3.255 1.777-1.148 3.434h-5.5l.709-5.241a7.857 7.857 0 011.996-4.273l.33-.319z" fill="#ECA880"/><path d="M919.498 258.577l.519 2.994a1.998 1.998 0 001.997 1.668l3.843-.4c.539 0 1.078-.12 1.208.41v0c.12.479-.419.748-.859.998l-2.815 1.517-1.737 5.161" stroke="#D98758"/></g><path d="M859.752 302.241a1.378 1.378 0 00.25 2.735l9.893.05a3.606 3.606 0 002.555-.998l3.554-3.464-5.121-3.794-3.584 4.083-7.547 1.388z" fill="#C2C1C0"/><path d="M172.949 178.885a3.993 3.993 0 107.986 0m-3.973-8.555v-7.467c0-6.797 5.51-12.308 12.308-12.308s12.309 5.511 12.309 12.308v104.019m-8.725 37.405l1.577-30.157a7.628 7.628 0 017.617-7.248v0a7.638 7.638 0 017.627 7.248l1.577 30.157" stroke="#D4E1F3" stroke-linecap="round"/><path clip-rule="evenodd" d="M186.365 178.885h-18.807v0a8.555 8.555 0 018.555-8.555h1.687a8.555 8.555 0 018.555 8.555v0h.01z" stroke="#D4E1F3" stroke-linecap="round"/><path d="M303.362 190.994h24.167" stroke="#D4E1F3" stroke-width="2" stroke-linecap="round"/><path d="M313.174 191.903c-.569.948-.119 2.086.19 3.155 1.997 6.897 12.977 27.532 12.977 27.532.67-.319 1.315-.69 1.927-1.109 1.458-.998 3.075-2.545 2.536-3.623l-13.816-23a4.69 4.69 0 010-2.875l.599-1.917a1.277 1.277 0 00-1.088-1.597h-1.108a1.628 1.628 0 00-1.318.868l-.899 2.566z" fill="#ECA880"/><path d="M280.142 220.433l.529-.469a2.998 2.998 0 011.997-.769h3.514a1.37 1.37 0 011.177 2.057l-1.317 2.276a1.359 1.359 0 01-1.178.679h-2.785l-1.488-.42-.469-3.354" fill="#873F32"/><path d="M254.696 225.275l25.446-4.842.469 3.354-23.14 7.727-2.775-6.239z" fill="#873F32"/><path d="M256.323 227.301l-.369-5.241 2.995-2.615a4.484 4.484 0 001.358-4.622 7.865 7.865 0 00-3.215-4.432l-6.109 8.235-.33 8.615 5.67.06z" fill="#A25A4B"/><path d="M234.432 248.015c-3.864-.998-6.15 0-7.348 1.597-1.906 2.536 1.997 5.99 1.997 5.99" fill="#18733B"/><path d="M329.316 146.991l-96.941 157.176m56.881-91.73h26.454m-38.653 19.107h25.955m-36.935 18.967h25.954m-38.662 19.985h26.444m-37.745 19.087h25.296" stroke="#D4E1F3" stroke-width="2" stroke-linecap="round"/><path opacity=".5" d="M207.828 304.587h16.621m7.946 0h16.641m9.554 0h33.701" stroke="#D4E1F3" stroke-linecap="round"/><path d="M261.475 283.224l-.04-9.783h-6.459l1.667 13.077 5.311.529 3.893-.988-4.372-2.835z" fill="#A25A4B"/><path d="M234.691 259.485l-13.396 27.342 2.994-.658 16.472-23.34a12.349 12.349 0 01-6.07-3.344z" fill="#208E45"/><path d="M217.661 303.758l-2.596-1.597-1.567.449a6.535 6.535 0 01-1.807.26h-5.43a1.527 1.527 0 001.367 2.206h9.384c.679 0 1.228-.959.649-1.318zm50.412-16.361l-2.595-1.598-1.568.45a6.572 6.572 0 01-1.807.259h-5.43a1.529 1.529 0 001.368 2.206h9.383a.82.82 0 00.649-1.317z" fill="#C2C1C0"/><path d="M219.508 290.94h-7.248l-5.64 11.231-.359.709h5.43a6.535 6.535 0 001.807-.26l1.567-.449-2.545-1.577 6.988-9.654z" fill="#A25A4B"/><path d="M261.644 264.626a7.714 7.714 0 00-3.454-6.708 768.751 768.751 0 00-14.045-9.104c-3.993-2.506-7.128-2.067-9.254-.999a9.046 9.046 0 00-3.993 4.103l-19.566 39.022h9.553l19.826-28.101a40.91 40.91 0 0012.538 3.065l.808 7.547h7.987l-.4-8.825z" fill="#55A55C"/><mask id="h" maskUnits="userSpaceOnUse" x="211" y="246" width="52" height="45"><path d="M261.644 264.626a7.714 7.714 0 00-3.454-6.708 768.751 768.751 0 00-14.045-9.104c-3.993-2.506-7.128-2.067-9.254-.999a9.046 9.046 0 00-3.993 4.103l-19.566 39.022h9.553l19.826-28.101a40.91 40.91 0 0012.538 3.065l.808 7.547h7.987l-.4-8.825z" fill="#55A55C"/></mask><g mask="url(#h)"><path d="M242.528 264.067s-9.444-2.785-9.654-8.655" stroke="#18733B"/></g><path d="M211.332 290.93l1.477-2.944h11.92l-2.077 2.944h-11.32z" fill="#55A55C"/><path d="M222.962 287.986l1.277-1.817-8.076 1.817h6.799z" fill="#208E45"/><path d="M254.057 273.441l-.279-2.945h9.463l-.439 2.945h-8.745z" fill="#55A55C"/><path d="M261.904 270.496l-.05-1.817-5.57 1.817h5.62z" fill="#208E45"/><path d="M212.26 290.93h7.248l-1.478 2.037-5.77-2.037zm42.716-17.489h6.459l.01 2.486-6.469-2.486z" fill="#873F32"/><path d="M235.13 248.574s1.248.38 5.601 1.597a23.633 23.633 0 007.197.999l-1.487-3.884-5.71-3.204.199-7.986-2.076 3.993a7.436 7.436 0 01-.938 1.457 19.298 19.298 0 01-4.992 4.213l-4.482 2.626a7.904 7.904 0 015.66-.17" fill="#A9D8B5"/><path d="M247.968 251.2s2.326-5.221 4.991-7.907c2.666-2.685 5.291-2.096 7.797-5.41 2.505-3.314-4.412-11.54-4.412-11.54a10.464 10.464 0 01-5.711-.23l-8.355 6.309a60.34 60.34 0 01-7.786 15.593l13.476 3.185z" fill="#A9D8B5"/><path d="M287.918 228.709h-1.158a1.996 1.996 0 00-1.996 1.996v2.097a1.498 1.498 0 01-.998 1.417l-13.826 4.612-10.642-9.224c-1.707-1.527-4.512-2.066-6.169-.469a4.303 4.303 0 00.349 6.489l13.756 10.681a2.676 2.676 0 003.045.18l17.639-11.28a4.513 4.513 0 002.077-3.794v-.709a1.996 1.996 0 00-2.077-1.996z" fill="#A25A4B"/><path d="M258.41 208.324a3.904 3.904 0 00-7.806 0c.001.249.028.496.079.739-1.357.799-4.522 3.194-3.044 7.487a15.844 15.844 0 00-10.123 6.918c-4.123 6.129.649 10.492.649 10.492s6.509 4.642 10.821-1.717a50.245 50.245 0 006.21-13.297s1.816-2.516.998-4.083c-.659-1.238.11-2.655.719-3.474a4.384 4.384 0 001.497-3.065z" fill="#842D1B"/><ellipse cx="255.52" cy="217.018" rx="1.158" ry="1.428" transform="rotate(-75.8 255.52 217.018)" fill="#A25A4B"/><path d="M284.644 220.283l-2.476 1.418.719-2.506h2.276l-.519 1.088z" fill="#873F32"/><path opacity=".5" d="M237.327 246.438a13.307 13.307 0 0011.979-4.991" stroke="#55A55C" stroke-linecap="round"/><path d="M356.01 146.991l-97.131 157.176m56.751-134.615h26.444" stroke="#D4E1F3" stroke-width="2" stroke-linecap="round"/><path d="M364.495 304.547a7.887 7.887 0 1115.773 0" stroke="#D4E1F3" stroke-linecap="round"/><path d="M337.123 220.932l1.827-4.122a8.263 8.263 0 012.905-3.504l1.277-.869 2.416 2.895c.998 1.148 2.995 3.185 2.616 4.612l-1.288 2.646-3.794 3.523-5.959-5.181z" fill="#ECA880"/><path d="M330.794 217.858l4.931 10.831-4.931 9.194s-3.175-1.607-8.935-14.874l8.935-5.151z" fill="#C24739"/><path opacity=".5" d="M313.115 304.527h23.359m23.12 0h23.359" stroke="#D4E1F3" stroke-linecap="round"/><path d="M338.49 265.145A170.412 170.412 0 01332.331 251a67.128 67.128 0 00-14.904 44.752h7.637c1.637-8.495 5.311-21.143 13.426-30.607z" fill="#DDDFE0"/><path d="M325.064 295.752h-6.269a65.14 65.14 0 00.239 3.634h5.401c.17-1.098.369-2.306.629-3.634zm43.175 0h-7.108c1.647 1.837 2.865 2.995 3.494 3.634h5.989a246.027 246.027 0 01-2.375-3.634z" fill="#ECA880"/><path d="M349.421 253.416s2.845-.13 2.167-3.993c-.589-3.344-2.526-3.354-3.415-8.306-.888-4.951-2.186 7.168-2.186 7.168l3.434 5.131z" fill="#DA513E"/><ellipse cx="335.728" cy="220.433" rx="5.151" ry="1.917" transform="rotate(-30 335.728 220.433)" fill="#A42422"/><path d="M338.49 265.145a135.266 135.266 0 0020.125 30.607h9.623c-14.225-22.261-18.817-42.336-18.817-42.336-9.473-4.462-17.09-2.406-17.09-2.406l8.286 11.839a61.79 61.79 0 00-2.127 2.296z" fill="#EBEBEB"/><path d="M340.617 262.839l-8.286-11.829c1.997 5.141 4.053 9.853 6.159 14.145a63.017 63.017 0 012.127-2.316z" fill="#EBEBEB"/><path opacity=".25" d="M326.102 291.03l-.439 1.837h-5.83l6.269-1.837z" fill="#9A9FA5"/><path d="M325.443 295.752l.659-2.885h-9.234l.559 2.885h8.016zm39.891-4.722l1.098 1.837h-6.02l4.922-1.837z" fill="#DDDFE0"/><path d="M368.828 295.752l-1.578-2.885h-11.799l2.695 2.885h10.682z" fill="#EBEBEB"/><path d="M361.131 295.752l8.146 1.607-1.048-1.607h-7.098zm-42.336 0l5.999 1.427.26-1.427h-6.259z" fill="#E8976F"/><path d="M340.187 217.858l-8.345-22.092a4.073 4.073 0 01.269-3.454c.16-.269 1.128-1.727 1.218-1.877a2.173 2.173 0 00-.788-2.994l-3.075 4.991-.26.429a3.937 3.937 0 00-.419 3.155c1.997 6.898 6.928 26.543 6.928 26.543a13.642 13.642 0 001.927-1.108c1.467-.998 3.084-2.515 2.545-3.593z" fill="#ECA880"/><mask id="i" maskUnits="userSpaceOnUse" x="329" y="217" width="21" height="37"><path d="M349.421 253.416l-17.09-2.406s-5.989-14.305.559-23.779l-1.607-4.172 8.854-5.301s7.987 10.122 9.284 35.668" fill="#DA513E"/></mask><g mask="url(#i)"><path d="M349.421 253.416l-17.09-2.406s-5.989-14.305.559-23.779l-1.607-4.172 8.854-5.301s7.987 10.122 9.284 35.668" fill="#DA513E"/><path d="M338.49 242.445a14.48 14.48 0 008.526 6.329m-11.88-14.395l-3.304-8.475" stroke="#B8332A"/></g><path d="M351.528 215.422l-.499-1.547a3.125 3.125 0 00-2.895-2.266h-.26a3.164 3.164 0 01-2.286-.999l-.868-.908a1.607 1.607 0 00-2.736.839l-1.238 3.663s.45-.409.599-.529c.43-.329 1.767-1.228 1.767-1.228l1.637 2.596c.495.686.69 1.543.54 2.376l-.27 1.547.1-.06a1.597 1.597 0 111.208 2.895 2.1 2.1 0 01-1.068.15l-1.618 2.386.699 1.786 5.151-3.184a6.989 6.989 0 002.037-7.517z" fill="#674424"/><ellipse cx="326.335" cy="220.428" rx="5.151" ry="1.917" transform="rotate(-30 326.335 220.428)" fill="#C24739"/><path d="M372.571 303.179c-.789-1.517-1.078-2.246-1.947-3.793h-5.989c-1.687.998-4.852 2.276-6.748 3.623a.993.993 0 00-.33.41h15.114a2.29 2.29 0 00-.1-.24z" fill="#5B7FC0"/><path d="M358.655 305.046h12.978a1.149 1.149 0 00.998-1.627h-15.084a1.207 1.207 0 001.108 1.627zm-46.898 0h11.22a.91.91 0 00.909-.839c0-.219.05-.489.08-.788h-12.768a.91.91 0 00.559 1.627z" fill="#B1C9E9"/><path d="M324.435 299.386h-5.401l-7.806 3.993h12.748c.05-.939.209-2.316.459-3.993z" fill="#5B7FC0"/><path d="M377.952 298.298a13.596 13.596 0 0125.665 6.249m7.766-6.359a13.596 13.596 0 0115.286-6.949 13.596 13.596 0 0110.38 13.198" stroke="#D4E1F3" stroke-linecap="round"/><path d="M437.049 304.547a7.885 7.885 0 017.886-7.886 7.886 7.886 0 017.886 7.886m-52.449-8.815a9.594 9.594 0 0113.357 8.815m-33.342-46.08v36.287" stroke="#D4E1F3" stroke-linecap="round"/><path d="M390.789 294.963v8.575l-4.093-4.092m35.778-4.483v8.575l-4.093-4.092" stroke="#D4E1F3" stroke-linecap="round" stroke-linejoin="round"/><path d="M380.387 275.188l6.499-6.499m-6.619-2.555l-4.621-4.622m15.143 39.092l2.995-2.995" stroke="#D4E1F3" stroke-linecap="round"/><rect x="370.415" y="244.491" width="19.935" height="38.673" rx="9.968" stroke="#D4E1F3" stroke-linecap="round"/><path d="M94.016 276.336h75.998a2.716 2.716 0 000-5.43H94.016" fill="#fff"/><path d="M94.016 276.336h75.998a2.716 2.716 0 002.715-2.715v0c0-1.5-1.216-2.715-2.715-2.715H94.016" stroke="#D4E1F3" stroke-linecap="round"/><path opacity=".5" d="M174.466 304.287h13.656m-129.574-.12h107.273" stroke="#D4E1F3" stroke-linecap="round"/><rect x="142.432" y="276.326" width="81.428" height="5.431" rx="2.715" transform="rotate(-180 142.432 276.326)" fill="#fff" stroke="#D4E1F3" stroke-linecap="round"/><path d="M174.466 304.287l-5.79-27.951M91.31 245.05l.43-2.136m-2.795 13.996l.988-4.941m-3.773 18.936l1.567-7.876m79.781-17.979l.419-2.136m-2.785 13.996l.989-4.941m-3.774 18.936l1.567-7.876m-20.314 13.307l5.43 27.951m-90.492-.709l5.42-27.242" stroke="#D4E1F3" stroke-linecap="round"/><rect x="177.72" y="251.26" width="94.955" height="5.431" rx="2.715" transform="rotate(-180 177.72 251.26)" fill="#fff" stroke="#D4E1F3" stroke-linecap="round"/><rect x="174.137" y="262.34" width="94.955" height="5.431" rx="2.715" transform="rotate(-180 174.137 262.34)" fill="#fff" stroke="#D4E1F3" stroke-linecap="round"/><path d="M83.265 251.22a31.808 31.808 0 01-22.52-.589m-19.158-23.998c-2.524-15.095 6.122-29.831 20.53-34.991 14.408-5.159 30.443.738 38.075 14.004 7.631 13.265 4.669 30.092-7.034 39.954m-20.385 30.736v26.973m0-93.886v61.482m0-38.852l18.368-18.358m-18.557 30.976l-12.359-12.358m-.699 6.488h7.118m15.732-15.932h9.863m-5.32-4.961v-5.6M72.773 222.58l-13.746-13.747" stroke="#D4E1F3" stroke-linecap="round"/><circle cx="68.231" cy="205.739" r="1.997" stroke="#D4E1F3" stroke-linecap="round"/><circle cx="54.605" cy="227.291" r="1.997" stroke="#D4E1F3" stroke-linecap="round"/><circle cx="88.536" cy="236.665" r="1.997" stroke="#D4E1F3" stroke-linecap="round"/><circle cx="45.82" cy="259.914" r="1.997" stroke="#D4E1F3" stroke-linecap="round"/><circle cx="32.563" cy="253.067" r="27.662" stroke="#D4E1F3" stroke-linecap="round"/><path d="M32.134 241.107v52.559m0-34.25l10.302-10.302m-10.492 20.204l-7.327-7.327m7.327-8.735l-7.327-7.327m-11.16 53.367a13.597 13.597 0 0125.665 6.249m-39.122 0a7.886 7.886 0 0115.773 0" stroke="#D4E1F3" stroke-linecap="round"/><path d="M26.284 295.962v8.575l-4.093-4.093" stroke="#D4E1F3" stroke-linecap="round" stroke-linejoin="round"/><path d="M26.284 301.602l2.995-2.995m63.879-22.271l-5.43 27.242" stroke="#D4E1F3" stroke-linecap="round"/><path d="M124.443 240.798a4.992 4.992 0 004.942-4.432h-3.065v-2.116h-2.915v2.425h-3.853a4.991 4.991 0 004.891 4.123z" fill="#D48E64"/><mask id="j" maskUnits="userSpaceOnUse" x="105" y="236" width="36" height="25"><path d="M129.385 236.366a4.992 4.992 0 01-9.843.309h-3.304a16.747 16.747 0 00-7.208 2.436 7.647 7.647 0 000 12.618 7.223 7.223 0 003.185 1.118s.359 5.311-1.148 7.796h17.769l11.34-24.277h-10.791z" fill="#FDD663"/></mask><g mask="url(#j)"><path d="M129.385 236.366a4.992 4.992 0 01-9.843.309h-3.304a16.747 16.747 0 00-7.208 2.436 7.647 7.647 0 000 12.618 7.223 7.223 0 003.185 1.118s.359 5.311-1.148 7.796h17.769l11.34-24.277h-10.791z" fill="#FDD663"/><path d="M111.506 243.024s2.246 6.399 10.861 6.04m-.04 4.572a27.848 27.848 0 01-12.977-1.069" stroke="#F9BC15"/></g><path d="M125.501 236.366h4.992s2.066-14.974-6.789-14.974c-8.854 0-8.615 11.041-8.615 17.669 0 .509.06 3.514.15 3.943h8.156v-16.271a.36.36 0 01.359-.35h4.133l-2.386 7.866v2.117z" fill="#674424"/><path d="M123.395 234.249h2.196a2.605 2.605 0 002.346-1.367c.454-1 .636-2.102.529-3.195-.1-2.406-.359-3.054-.499-3.234a.159.159 0 00-.14-.07h-4.242a.2.2 0 00-.19.19v7.676z" fill="#D48E64"/><path d="M125.501 235.477v-1.227h-2.106l2.106 1.227z" fill="#CE835A"/><path d="M111.087 260.643s-7.897.21-10.572 7.088c-2.675 6.878-2.665 14.555-2.665 22.241h6.618s.419-10.482 2.276-14.664c0 0 1.378-5.311 12.868-5.311l8.355-9.354h-16.88z" fill="#EBEBEB"/><mask id="k" maskUnits="userSpaceOnUse" x="87" y="260" width="31" height="30"><path d="M100.974 260.643s-7.896.21-10.572 7.088c-2.675 6.878-2.665 14.555-2.665 22.211h6.639s.419-10.481 2.276-14.664c0 0 2.515-7.337 12.867-5.311l8.356-9.353-16.901.029z" fill="#EBEBEB"/></mask><g mask="url(#k)"><path d="M100.974 260.643s-7.896.21-10.572 7.088c-2.675 6.878-2.665 14.555-2.665 22.211h6.639s.419-10.481 2.276-14.664c0 0 2.515-7.337 12.867-5.311l8.356-9.353-16.901.029z" fill="#EBEBEB"/><path clip-rule="evenodd" d="M111.765 259.915a10.227 10.227 0 00-2.994.439c-2.436.759-6.888 2.685-8.705 7.377-2.696 6.868-2.696 14.555-2.696 22.211h6.609s.429-10.481 2.286-14.664c0 0 2.506-7.337 12.857-5.311l7.917-10.082-15.274.03z" stroke="#DDDFE0"/></g><path fill="#D48E64" d="M87.737 289.972h5.091v2.026h-5.091zm10.113 0h5.091v2.026H97.85z"/><path d="M102.941 291.999v2.076c0 .751-.302 1.471-.839 1.997l-4.282 4.152a1.128 1.128 0 01-1.847-1.177l1.877-5.401v-1.647h5.091zm-10.113 0h-5.09v1.647l-1.878 5.401c-.155.409-.044.872.28 1.167l6.688-6.348v-1.867z" fill="#ED675C"/><path d="M87.707 300.224l4.283-4.152a2.797 2.797 0 00.838-1.997v-.21l-6.688 6.349c.432.431 1.13.435 1.567.01zm10.113 0l4.282-4.152a2.795 2.795 0 00.839-1.997v-.21l-6.689 6.349c.433.431 1.13.435 1.568.01z" fill="#F7AEA9"/><path d="M148.282 234.679s-1.997-.41-2.456-3.285a8.718 8.718 0 00-1.388-1.257c.149-.246.254-.517.31-.799.15-.998-.24-1.807-.879-1.917-.638-.109-1.287.579-1.447 1.528a11.891 11.891 0 00-6.629-.909s.729 8.695 5.99 5.99l.3.669a1 1 0 01-.639 1.297c-1.151.286-2.268.69-3.335 1.208a8.325 8.325 0 0013.227-1.916 12.387 12.387 0 00-3.054-.609z" fill="#E6C1A9"/><mask id="l" maskUnits="userSpaceOnUse" x="115" y="235" width="44" height="52"><path d="M151.356 235.288a8.325 8.325 0 01-13.227 1.916c-2.625 1.268-5.52 3.604-5.989 7.787v15.243h-5.58s-6.669 1.498-8.815 7.986c-2.146 6.489-2.406 13.287-2.406 18.149h22.371s-.489-9.833 3.634-16.262h6.558c6.409 0 9.424-8.555 10.282-13.507 1.288-7.417 1.278-18.567-6.828-21.312z" fill="#91B2DD"/></mask><g mask="url(#l)"><path d="M151.356 235.288a8.325 8.325 0 01-13.227 1.916c-2.625 1.268-5.52 3.604-5.989 7.787v15.243h-5.58s-6.669 1.498-8.815 7.986c-2.146 6.489-2.406 13.287-2.406 18.149h22.371s-.489-9.833 3.634-16.262h6.558c6.409 0 9.424-8.555 10.282-13.507 1.288-7.417 1.278-18.567-6.828-21.312z" fill="#91B2DD"/><path d="M144.978 265.106s-4.443 6.169-5.621 10.581m17.57-36.486a13.98 13.98 0 01.489 11.57h-8.136c.578-2.012.864-4.097.849-6.19" stroke="#7198CF"/></g><path d="M141.803 234.03l2.506-1.408-2.157 2.226-.349-.818z" fill="#DEB093"/><mask id="m" maskUnits="userSpaceOnUse" x="141" y="251" width="15" height="9"><path d="M141.683 256.76l1.877 2.746c7.856 0 11.48-6.519 12.318-8.286h-5.6c-1.996 4.243-8.595 5.54-8.595 5.54z" fill="#E6C1A9"/></mask><g mask="url(#m)"><path d="M141.683 256.76l1.877 2.746c7.856 0 11.48-6.519 12.318-8.286h-5.6c-1.996 4.243-8.595 5.54-8.595 5.54z" fill="#E6C1A9"/><path d="M149.609 251.579l6.269 1.558.669-2.446-6.079-.719-.859 1.607z" fill="#DEB093"/></g><mask id="n" maskUnits="userSpaceOnUse" x="142" y="220" width="9" height="8"><circle cx="146.275" cy="223.907" r="3.803" fill="#DDDFE0"/></mask><g mask="url(#n)"><circle cx="146.275" cy="223.907" r="3.803" fill="#DDDFE0"/><path opacity=".25" d="M140.296 222.909s5.46.28 7.307 5.051l-3.654 1.538-4.841-6.799 1.188.21z" fill="#9A9FA5"/></g><path d="M145.806 226.952a6.915 6.915 0 00-1.647-2.805 4.523 4.523 0 00-3.674-1.208 5.262 5.262 0 00-4.632 3.913c-.056.28-.083.564-.08.849v.349s4.073-.09 5.99.769l.589.289a.742.742 0 010-.149c.16-.999.809-1.638 1.447-1.528.639.11.999.999.879 1.917a2.52 2.52 0 01-.389.998 26.45 26.45 0 011.467 1.098s1.098-1.337.05-4.492z" fill="#DDDFE0"/><path d="M145.097 260.643H126.39a2.215 2.215 0 01-1.927-1.138l-7.397-13.267a.798.798 0 01.699-1.187h17.34a2.202 2.202 0 011.926 1.128l8.066 14.464z" fill="#EBEBEB"/><path fill="#EBEBEB" d="M138.139 259.186h12.259v1.457h-12.259z"/><mask id="o" maskUnits="userSpaceOnUse" x="118" y="284" width="18" height="22"><path d="M129.315 286.368h-1.268c.289-3.653-.09 0-.09 0h-6.738c.13 4.702 1.298 9.544 2.076 14.525a1.467 1.467 0 01-.938 1.518l-3.454 1.507a.819.819 0 00.319 1.577h12.369a1.427 1.427 0 001.417-1.417c.179-5.935.847-11.845 1.997-17.67l-5.69-.04z" fill="#E6C1A9"/></mask><g mask="url(#o)"><path d="M129.315 286.368h-1.268c.289-3.653-.09 0-.09 0h-6.738c.13 4.702 1.298 9.544 2.076 14.525a1.467 1.467 0 01-.938 1.518l-3.454 1.507a.819.819 0 00.319 1.577h12.369a1.427 1.427 0 001.417-1.417c.179-5.935.847-11.845 1.997-17.67l-5.69-.04z" fill="#E6C1A9"/><path d="M136.203 291.31l-15.503-2.506v-2.845h15.632l-.129 5.351z" fill="#DEB093"/><path d="M123.954 305.914a1.056 1.056 0 01-.259-1.996l3.444-1.468c.602-.256.978-.864.938-1.517a135.86 135.86 0 010-14.525" stroke="#D3987A"/></g><path d="M158.803 240.648c.559 1.528.619 3.055-.908 3.614a2.936 2.936 0 01-1.997-5.52c1.498-.559 2.366.389 2.905 1.906z" fill="#D48E64"/><path d="M162.557 303.269l-7.797-39.112a3.901 3.901 0 013.934-4.901v0a6.287 6.287 0 015.879 4.901" stroke="#3F70B7" stroke-linecap="round"/><path d="M162.627 303.588l-.2-.988" stroke="#3768B2" stroke-width="2" stroke-linecap="round"/></svg>