<svg xmlns="http://www.w3.org/2000/svg" height="192" width="192"><path fill="none" d="M0 0h192v192H0z"/><path d="M161.24 32H57.15C46.16 32 34.8 36.65 34.8 48.33V65h116.43l4.5 6.58 11.36.06c6.65 0 16.91 4.86 16.91 9.36V54.65C184 42.14 173.8 32 161.24 32z" fill="#4285F4"/><path d="M30.76 32C18.2 32 8 42.17 8 54.69V111c0 9.02 4.81 22.3 16.38 22.3H41V48.33C41 39.32 48.11 32 57.15 32H30.76z" fill="#34A853"/><path d="M30.76 160h104.09c9.04 0 23.35-4.94 23.35-16.33V127H24.38C15.34 127 8 119.7 8 110.68v26.66C8 149.83 18.17 160 30.76 160z" fill="#FBBC04"/><path d="M161.24 160c12.55 0 22.76-10.17 22.76-22.69V81.33c0-9.02-7.34-16.33-16.38-16.33H151v78.67c0 9.02-7.11 16.33-16.15 16.33h26.39z" fill="#EA4335"/></svg>