<?xml version="1.0" encoding="utf-8"?>
<!-- Generator: Adobe Illustrator 23.1.1, SVG Export Plug-In . SVG Version: 6.00 Build 0)  -->
<svg version="1.1" id="Capa_1" xmlns="http://www.w3.org/2000/svg" xmlns:xlink="http://www.w3.org/1999/xlink" x="0px" y="0px"
	 viewBox="0 0 284.9 284.9" style="enable-background:new 0 0 284.9 284.9;" xml:space="preserve">
<style type="text/css">
	.st0{fill:#1A73E8;}
</style>
<g>
	<path class="st0" d="M208.4,282.3l14.3-14.3c1.9-1.9,2.9-4.1,2.9-6.6s-1-4.7-2.9-6.6L110.5,142.6L222.7,30.4
		c1.9-1.9,2.9-4.1,2.9-6.6s-1-4.7-2.9-6.6L208.4,2.9C206.5,1,204.3,0,201.8,0s-4.7,1-6.6,2.9l-133,133c-1.9,1.9-2.9,4.1-2.9,6.6
		s1,4.7,2.9,6.6l133.1,133.2c1.9,1.9,4,2.8,6.5,2.8S206.5,284.2,208.4,282.3z"/>
</g>
</svg>
