<?xml version="1.0" encoding="utf-8"?>
<!-- Generator: Adobe Illustrator 23.1.1, SVG Export Plug-In . SVG Version: 6.00 Build 0)  -->
<svg fill="#5f6368" version="1.1" id="Layer_1" xmlns="http://www.w3.org/2000/svg" xmlns:xlink="http://www.w3.org/1999/xlink" x="0px" y="0px"
	 viewBox="0 0 512 512" style="enable-background:new 0 0 512 512;" xml:space="preserve">
<g>
	<g>
		<g>
			<path d="M276.9,84.1V9.7c0-2.8-1.2-5.5-3.4-7.4c-2.2-1.8-5-2.6-7.9-2.2c-6,1-11.1,4.6-14.2,9.8l-49.1,85.1l-94.9-25.4
				c-7.1-1.9-14.4,0.1-19.6,5.2c-5.2,5.2-7.1,12.5-5.2,19.6l25.4,94.9l-85.1,49.1c-6.3,3.7-10.1,10.2-10.1,17.5
				c0,7.3,3.8,13.9,10.1,17.5l85.1,49.1l-25.4,94.9c-1.9,7.1,0.1,14.4,5.2,19.6c3.9,3.9,8.9,5.9,14.2,5.9c1.8,0,3.6-0.2,5.3-0.7
				l94.9-25.4l49.1,85.1c3,5.3,8.2,8.9,14.2,9.8c0.5,0.1,1.1,0.1,1.6,0.1c2.3,0,4.5-0.8,6.3-2.3c2.2-1.8,3.4-4.5,3.4-7.4v-74.4
				c91.2-4.1,164.2-79.7,164.2-171.9v0C441.1,163.7,368.1,88.2,276.9,84.1z M102.9,301.5l-72.1-41.6c-2-1.2-2.2-3.1-2.2-3.8
				c0-0.8,0.2-2.7,2.2-3.8l72.1-41.6c-4,14.5-6.1,29.7-6.1,45.5v0C96.8,271.7,99,287,102.9,301.5z M97.9,90.3
				c-0.6-2.2,0.6-3.7,1.1-4.3c0.5-0.5,2-1.7,4.3-1.1l80.5,21.6c-26.8,15.3-49,37.6-64.3,64.3L97.9,90.3z M103.3,427.1
				c-2.2,0.6-3.7-0.6-4.3-1.1c-0.5-0.5-1.7-2-1.1-4.3l21.6-80.5c15.3,26.8,37.6,49,64.3,64.3L103.3,427.1z M261,487l-37.6-65
				c12,3.3,24.6,5.3,37.6,5.9V487z M261,254c0,7-5.7,12.7-12.7,12.7c-7,0-12.7-5.7-12.7-12.7c0-4.4-3.5-7.9-7.9-7.9
				s-7.9,3.5-7.9,7.9c0,15.7,12.8,28.5,28.5,28.5c4.5,0,8.8-1.1,12.7-3v132.6C178.5,408,112.7,339.5,112.7,256
				c0-83.5,65.9-152,148.4-156.1L261,254L261,254z M261,84.1c-12.9,0.6-25.5,2.6-37.5,5.9L261,25V84.1z M276.9,412.1V279.5
				c3.8,1.9,8.1,3,12.7,3c15.7,0,28.5-12.8,28.5-28.5c0-4.4-3.5-7.9-7.9-7.9s-7.9,3.5-7.9,7.9c0,7-5.7,12.7-12.7,12.7
				c-7,0-12.7-5.7-12.7-12.7V99.9c82.5,4.1,148.4,72.6,148.4,156.1C425.2,339.5,359.4,408,276.9,412.1z"/>
		</g>
	</g>
</g>
</svg>
